<svg width="38" height="38" viewBox="0 0 38 38" fill="none" xmlns="http://www.w3.org/2000/svg">
<g clip-path="url(#clip0)">
<path d="M22.1667 15.1055L36.1158 17.8763C37.24 18.1138 38 19.0638 38 20.188V36.338C38 37.6521 36.9392 38.713 35.625 38.713H21.375C21.8183 38.713 22.1667 38.3646 22.1667 37.9213V37.1296H35.625C36.0525 37.1296 36.4167 36.7813 36.4167 36.338V20.188C36.4167 19.8238 36.1633 19.4913 35.7992 19.4121L22.1667 16.7205V15.1055Z" fill="#727272"/>
<path d="M30.8748 22.8809C31.3182 22.8809 31.6665 23.2292 31.6665 23.6725C31.6665 24.1159 31.3182 24.4642 30.8748 24.4642H27.7082C27.2648 24.4642 26.9165 24.1159 26.9165 23.6725C26.9165 23.2292 27.2648 22.8809 27.7082 22.8809H30.8748Z" fill="#727272"/>
<path d="M30.8748 27.6309C31.3182 27.6309 31.6665 27.9792 31.6665 28.4225C31.6665 28.8659 31.3182 29.2142 30.8748 29.2142H27.7082C27.2648 29.2142 26.9165 28.8659 26.9165 28.4225C26.9165 27.9792 27.2648 27.6309 27.7082 27.6309H30.8748Z" fill="#727272"/>
<path d="M30.8748 32.3809C31.3182 32.3809 31.6665 32.7292 31.6665 33.1725C31.6665 33.6159 31.3182 33.9642 30.8748 33.9642H27.7082C27.2648 33.9642 26.9165 33.6159 26.9165 33.1725C26.9165 32.7292 27.2648 32.3809 27.7082 32.3809H30.8748Z" fill="#727272"/>
<path d="M22.1668 37.9229C22.1668 38.3663 21.8185 38.7146 21.3752 38.7146C20.9318 38.7146 20.5835 38.3663 20.5835 37.9229V37.1313V15.7563C20.5835 15.5188 20.6943 15.2971 20.8685 15.1388C21.0585 14.9963 21.296 14.9329 21.5335 14.9804L22.1668 15.1071V16.7221V37.1313V37.9229Z" fill="#727272"/>
<path d="M20.5832 37.1309V37.9225C20.5832 38.3659 20.9315 38.7142 21.3748 38.7142H15.0415C15.4848 38.7142 15.8332 38.3659 15.8332 37.9225V37.1309H20.5832Z" fill="#727272"/>
<path d="M16.6248 8.63086C17.0682 8.63086 17.4165 8.97919 17.4165 9.42253C17.4165 9.86586 17.0682 10.2142 16.6248 10.2142H13.4582C13.0148 10.2142 12.6665 9.86586 12.6665 9.42253C12.6665 8.97919 13.0148 8.63086 13.4582 8.63086H16.6248Z" fill="#727272"/>
<path d="M17.4165 14.1725C17.4165 14.6159 17.0682 14.9642 16.6248 14.9642H13.4582C13.0148 14.9642 12.6665 14.6159 12.6665 14.1725C12.6665 13.7292 13.0148 13.3809 13.4582 13.3809H16.6248C17.0682 13.3809 17.4165 13.7292 17.4165 14.1725Z" fill="#727272"/>
<path d="M16.6248 18.1309C17.0682 18.1309 17.4165 18.4792 17.4165 18.9225C17.4165 19.3659 17.0682 19.7142 16.6248 19.7142H13.4582C13.0148 19.7142 12.6665 19.3659 12.6665 18.9225C12.6665 18.4792 13.0148 18.1309 13.4582 18.1309H16.6248Z" fill="#727272"/>
<path d="M16.6248 22.8809C17.0682 22.8809 17.4165 23.2292 17.4165 23.6725C17.4165 24.1159 17.0682 24.4642 16.6248 24.4642H13.4582C13.0148 24.4642 12.6665 24.1159 12.6665 23.6725C12.6665 23.2292 13.0148 22.8809 13.4582 22.8809H16.6248Z" fill="#727272"/>
<path d="M9.5 23.6725C9.5 24.1159 9.15167 24.4642 8.70833 24.4642H5.54167C5.09833 24.4642 4.75 24.1159 4.75 23.6725C4.75 23.2292 5.09833 22.8809 5.54167 22.8809H8.70833C9.15167 22.8809 9.5 23.2292 9.5 23.6725Z" fill="#727272"/>
<path d="M8.70833 8.63086C9.15167 8.63086 9.5 8.97919 9.5 9.42253C9.5 9.86586 9.15167 10.2142 8.70833 10.2142H5.54167C5.09833 10.2142 4.75 9.86586 4.75 9.42253C4.75 8.97919 5.09833 8.63086 5.54167 8.63086H8.70833Z" fill="#727272"/>
<path d="M8.70833 13.3809C9.15167 13.3809 9.5 13.7292 9.5 14.1725C9.5 14.6159 9.15167 14.9642 8.70833 14.9642H5.54167C5.09833 14.9642 4.75 14.6159 4.75 14.1725C4.75 13.7292 5.09833 13.3809 5.54167 13.3809H8.70833Z" fill="#727272"/>
<path d="M8.70833 18.1309C9.15167 18.1309 9.5 18.4792 9.5 18.9225C9.5 19.3659 9.15167 19.7142 8.70833 19.7142H5.54167C5.09833 19.7142 4.75 19.3659 4.75 18.9225C4.75 18.4792 5.09833 18.1309 5.54167 18.1309H8.70833Z" fill="#727272"/>
<path d="M14.2502 30.0059C14.2502 29.5625 13.886 29.2142 13.4585 29.2142H8.7085C8.26516 29.2142 7.91683 29.5625 7.91683 30.0059V37.1309H6.3335V30.0059C6.3335 28.6917 7.39433 27.6309 8.7085 27.6309H13.4585C14.7727 27.6309 15.8335 28.6917 15.8335 30.0059V37.1309H14.2502V30.0059Z" fill="#727272"/>
<path d="M7.91683 37.1309H14.2502H15.8335V37.9225C15.8335 38.3659 15.4852 38.7142 15.0418 38.7142H7.12516C6.68183 38.7142 6.3335 38.3659 6.3335 37.9225V37.1309H7.91683Z" fill="#727272"/>
<path d="M2.77083 1.03083L20.1717 3.67499C21.3275 3.86499 22.1667 4.84666 22.1667 6.01833V15.1067L21.5333 14.98C21.2958 14.9325 21.0583 14.9958 20.8683 15.1383C20.6942 15.2967 20.5833 15.5183 20.5833 15.7558V6.01833C20.5833 5.62249 20.2983 5.28999 19.9183 5.22666L2.5175 2.59833C2.47 2.58249 2.4225 2.58249 2.375 2.58249C2.185 2.58249 2.01083 2.64583 1.86833 2.77249C1.67833 2.93083 1.58333 3.13666 1.58333 3.37416V36.3392C1.58333 36.7825 1.9475 37.1308 2.375 37.1308H6.33333V37.9225C6.33333 38.3658 6.68167 38.7142 7.125 38.7142H2.375C1.06083 38.7142 0 37.6533 0 36.3392V3.37416C0 2.67749 0.300833 2.01249 0.839167 1.56916C1.3775 1.10999 2.07417 0.919993 2.77083 1.03083Z" fill="#727272"/>
</g>
<defs>
<clipPath id="clip0">
<rect width="38" height="38" fill="white"/>
</clipPath>
</defs>
</svg>
