<svg width="34" height="34" viewBox="0 0 34 34" fill="none" xmlns="http://www.w3.org/2000/svg">
<path d="M33.2273 4.63672H0.772727C0.345409 4.63672 0 4.98213 0 5.40945V28.5913C0 29.0186 0.345409 29.364 0.772727 29.364H33.2273C33.6538 29.364 34 29.0186 34 28.5913V5.40945C34 4.98213 33.6538 4.63672 33.2273 4.63672ZM32.4545 25.9493L22.882 16.3775L21.7894 17.4702L32.1377 27.8185H1.86227L12.2106 17.4702L11.118 16.3775L1.54545 25.9493V6.18217H32.4545V25.9493Z" fill="#727272"/>
<path d="M30.8928 6.18164L17 20.0745L3.10709 6.18164H1.54541V6.80523L16.4536 21.7135C16.7558 22.0156 17.2441 22.0156 17.5463 21.7135L32.4545 6.80523V6.18164H30.8928Z" fill="#727272"/>
</svg>
