<svg width="38" height="38" viewBox="0 0 38 38" fill="none" xmlns="http://www.w3.org/2000/svg">
<g clip-path="url(#clip0)">
<path d="M37.6758 15.1521L19.2887 5.34561C19.1079 5.24938 18.8927 5.24938 18.7119 5.34561L0.324839 15.1521C0.124419 15.2587 0 15.4665 0 15.6926C0 15.9188 0.124419 16.1266 0.324226 16.2332L5.51613 19.0023V26.7249H6.74194V19.6563L8.58065 20.6369V24.3603C7.52584 24.6343 6.74194 25.5855 6.74194 26.7249C6.74194 27.2851 6.93807 27.7956 7.25555 28.2093C6.9209 29.3536 6.74194 30.5335 6.74194 31.7274V33.4668C6.74194 33.6991 6.8731 33.9112 7.08087 34.0154L7.75813 34.3543C8.20187 34.5756 8.69771 34.6926 9.19355 34.6926C9.68939 34.6926 10.1852 34.5756 10.629 34.3537L11.3062 34.0148C11.514 33.9112 11.6452 33.6991 11.6452 33.4668V31.7274C11.6452 30.5335 11.4662 29.3536 11.1315 28.2093C11.449 27.7956 11.6452 27.2851 11.6452 26.7249C11.6452 25.5855 10.8613 24.6343 9.80645 24.3603V21.2909L18.7113 26.0403C18.802 26.0881 18.9007 26.112 19 26.112C19.0993 26.112 19.198 26.0881 19.2887 26.0403L31.2581 19.6563V26.4221C27.8491 28.9908 23.6385 30.4023 19.3671 30.4023H18.6335C16.5294 30.4023 14.4492 30.0683 12.4499 29.4094L12.0668 30.5739C14.1887 31.2733 16.3988 31.6281 18.6329 31.6281H19.3665C24.0086 31.6281 28.5827 30.0585 32.2473 27.2085C32.3962 27.0926 32.4839 26.9143 32.4839 26.7249V19.0023L37.6758 16.2332C37.8756 16.1266 38 15.9188 38 15.6926C38 15.4665 37.8756 15.2587 37.6758 15.1521ZM10.4194 33.0881L10.0804 33.2572C9.53187 33.5312 8.85461 33.5312 8.30606 33.2572L7.96774 33.0881V31.7274C7.96774 30.8062 8.0799 29.8936 8.30116 29.0024C8.57819 29.1115 8.8779 29.1765 9.19355 29.1765C9.50919 29.1765 9.8089 29.1115 10.0859 29.0024C10.3072 29.8936 10.4194 30.8062 10.4194 31.7274V33.0881ZM10.4194 26.7249C10.4194 27.4009 9.86958 27.9507 9.19355 27.9507C8.51752 27.9507 7.96774 27.4009 7.96774 26.7249C7.96774 26.0489 8.51752 25.4991 9.19355 25.4991C9.86958 25.4991 10.4194 26.0489 10.4194 26.7249ZM19 24.8041L10.2281 20.1258L17.8214 16.0763C18.1701 16.2185 18.5673 16.3055 19 16.3055C20.3747 16.3055 21.4516 15.4977 21.4516 14.4668C21.4516 13.4359 20.3747 12.6281 19 12.6281C17.6253 12.6281 16.5484 13.4359 16.5484 14.4668C16.5484 14.7469 16.6336 15.008 16.777 15.244L8.92571 19.4313L1.91532 15.6926L19 6.58061L36.0847 15.6926L19 24.8041ZM17.7742 14.4668C17.7742 14.2168 18.2516 13.8539 19 13.8539C19.7484 13.8539 20.2258 14.2168 20.2258 14.4668C20.2258 14.7169 19.7484 15.0797 19 15.0797C18.2516 15.0797 17.7742 14.7169 17.7742 14.4668Z" fill="#727272"/>
</g>
<defs>
<clipPath id="clip0">
<rect width="38" height="38" fill="white"/>
</clipPath>
</defs>
</svg>
