<svg width="228" height="32" viewBox="0 0 228 32" fill="none" xmlns="http://www.w3.org/2000/svg">
<path fill-rule="evenodd" clip-rule="evenodd" d="M0 0H36.6124V7.69535H0V0Z" fill="#F6FCFF"/>
<path fill-rule="evenodd" clip-rule="evenodd" d="M0 11.2246H36.6124V18.92H0V11.2246Z" fill="#F6FCFF"/>
<path fill-rule="evenodd" clip-rule="evenodd" d="M0 23.2793H36.6124V30.9746H0V23.2793Z" fill="#F6FCFF"/>
<path fill-rule="evenodd" clip-rule="evenodd" d="M45.8071 0H57.8196V11.3939H60.7588V8.47085C60.7588 3.81785 64.7842 0 69.7681 0H90.7899C95.7738 0 99.8631 3.81785 99.8631 8.47085V22.4299C99.8631 27.0829 95.7738 30.9007 90.7899 30.9007H69.7681C64.7842 30.9007 60.7588 27.0829 60.7588 22.4299V22.2509H72.7073H87.8507V8.64981H72.7073V19.0892H60.7588H57.8196V30.9007H45.8071V0Z" fill="#F6FCFF"/>
<path fill-rule="evenodd" clip-rule="evenodd" d="M105.864 0H134.17C138.707 0 142.413 3.45992 142.413 7.69535H105.864V0Z" fill="#F6FCFF"/>
<path fill-rule="evenodd" clip-rule="evenodd" d="M115.576 11.2246H142.413C142.413 13.0739 140.112 15.639 138.451 15.639C140.751 15.639 142.413 18.2638 142.413 20.7096V23.0361C142.413 27.2715 138.707 30.7314 134.17 30.7314H105.864V23.0361H130.4V18.92H115.576V11.2246Z" fill="#F6FCFF"/>
<path fill-rule="evenodd" clip-rule="evenodd" d="M156.408 0H181.2V9.24635H160.242V31.0797H148.166V7.69535C148.166 3.45993 151.871 0 156.408 0Z" fill="#F6FCFF"/>
<path fill-rule="evenodd" clip-rule="evenodd" d="M198.608 11.036H213.048V19.5665H198.608H195.477C190.493 19.5665 186.404 15.8083 186.404 11.1553V0H198.608V11.036Z" fill="#F6FCFF"/>
<path fill-rule="evenodd" clip-rule="evenodd" d="M186.404 22.1316H215.924V0H228V22.1316V22.3702C228 27.0232 223.975 30.8411 218.991 30.8411H186.404V22.1316Z" fill="#F6FCFF"/>
</svg>
