<svg width="249" height="34" viewBox="0 0 249 34" fill="none" xmlns="http://www.w3.org/2000/svg">
<path fill-rule="evenodd" clip-rule="evenodd" d="M0 0H39.9846V8.40414H0V0Z" fill="#2195AE"/>
<path fill-rule="evenodd" clip-rule="evenodd" d="M0 12.2578H39.9846V20.662H0V12.2578Z" fill="#006593"/>
<path fill-rule="evenodd" clip-rule="evenodd" d="M0 25.4238H39.9846V33.828H0V25.4238Z" fill="#224C84"/>
<path fill-rule="evenodd" clip-rule="evenodd" d="M50.0264 0H63.1452V12.4433H66.3552V9.25107C66.3552 4.1695 70.7514 0 76.1943 0H99.1523C104.595 0 109.061 4.1695 109.061 9.25107V24.4958C109.061 29.5774 104.595 33.7469 99.1523 33.7469H76.1943C70.7514 33.7469 66.3552 29.5774 66.3552 24.4958V24.3003H79.4042H95.9424V9.44651H79.4042V20.8475H66.3552H63.1452V33.7469H50.0264V0Z" fill="#224C84"/>
<path fill-rule="evenodd" clip-rule="evenodd" d="M115.615 0H146.528C151.482 0 155.53 3.7786 155.53 8.40414H115.615V0Z" fill="#224C84"/>
<path fill-rule="evenodd" clip-rule="evenodd" d="M126.221 12.2578H155.53C155.53 14.2774 153.017 17.0788 151.203 17.0788C153.715 17.0788 155.53 19.9453 155.53 22.6164V25.1572C155.53 29.7827 151.482 33.5613 146.528 33.5613H115.615V25.1572H142.411V20.662H126.221V12.2578Z" fill="#224C84"/>
<path fill-rule="evenodd" clip-rule="evenodd" d="M170.814 0H197.889V10.098H175.001V33.9423H161.812V8.40414C161.812 3.77861 165.86 0 170.814 0Z" fill="#224C84"/>
<path fill-rule="evenodd" clip-rule="evenodd" d="M216.901 12.0525H232.672V21.3687H216.901H213.482C208.039 21.3687 203.573 17.2643 203.573 12.1828V0H216.901V12.0525Z" fill="#224C84"/>
<path fill-rule="evenodd" clip-rule="evenodd" d="M203.573 24.1701H235.812V0H249V24.1701V24.4307C249 29.5122 244.604 33.6817 239.161 33.6817H203.573V24.1701Z" fill="#224C84"/>
</svg>
