<svg width="38" height="39" viewBox="0 0 38 39" fill="none" xmlns="http://www.w3.org/2000/svg">
<g clip-path="url(#clip0)">
<path d="M30.2593 15.0637V11.1139C30.2593 5.48775 25.2081 0.910156 19 0.910156C12.792 0.910156 7.74078 5.48775 7.74078 11.1139V15.0637C5.34748 15.4761 3.51855 17.5619 3.51855 20.072V33.8238C3.51855 36.628 5.80067 38.9102 8.60563 38.9102H29.3944C32.1994 38.9102 34.4815 36.628 34.4815 33.8231V20.0713C34.4815 17.5619 32.6526 15.4761 30.2593 15.0637ZM9.14818 11.1139C9.14818 6.26323 13.5674 2.31756 19 2.31756C24.4326 2.31756 28.8519 6.26323 28.8519 11.1139V14.9842H9.14818V11.1139ZM33.0741 33.8231C33.0741 35.8519 31.4232 37.5028 29.3944 37.5028H8.60563C6.57685 37.5028 4.92596 35.8519 4.92596 33.8231V20.0713C4.92596 18.0425 6.57685 16.3916 8.60563 16.3916H29.3944C31.4232 16.3916 33.0741 18.0425 33.0741 20.0713V33.8231Z" fill="#727272"/>
<path d="M18.9999 20.6133C17.4475 20.6133 16.1851 21.8757 16.1851 23.4281V27.6503C16.1851 29.2027 17.4475 30.4651 18.9999 30.4651C20.5522 30.4651 21.8147 29.2027 21.8147 27.6503V23.4281C21.8147 21.8757 20.5522 20.6133 18.9999 20.6133ZM20.4073 27.6503C20.4073 28.4265 19.7761 29.0577 18.9999 29.0577C18.2237 29.0577 17.5925 28.4265 17.5925 27.6503V23.4281C17.5925 22.6519 18.2237 22.0207 18.9999 22.0207C19.7761 22.0207 20.4073 22.6519 20.4073 23.4281V27.6503Z" fill="#727272"/>
</g>
<defs>
<clipPath id="clip0">
<rect width="38" height="38" fill="white" transform="translate(0 0.910156)"/>
</clipPath>
</defs>
</svg>
