<svg width="38" height="39" viewBox="0 0 38 39" fill="none" xmlns="http://www.w3.org/2000/svg">
<g clip-path="url(#clip0)">
<path d="M18.8628 21.3856C18.9021 21.3856 18.9415 21.3856 18.9887 21.3856C19.0044 21.3856 19.0201 21.3856 19.0359 21.3856C19.0595 21.3856 19.091 21.3856 19.1146 21.3856C21.4202 21.3463 23.2852 20.5358 24.6623 18.9855C27.6919 15.5703 27.1883 9.71571 27.1332 9.157C26.9365 4.96276 24.9535 2.95613 23.3167 2.0197C22.097 1.31935 20.6727 0.941633 19.0831 0.910156H19.028C19.0201 0.910156 19.0044 0.910156 18.9965 0.910156H18.9493C18.0759 0.910156 16.3604 1.0518 14.7157 1.98823C13.0632 2.92465 11.0487 4.93128 10.852 9.157C10.7969 9.71571 10.2933 15.5703 13.3229 18.9855C14.6921 20.5358 16.5571 21.3463 18.8628 21.3856ZM12.9531 9.35373C12.9531 9.33012 12.9609 9.30651 12.9609 9.29077C13.2206 3.64861 17.226 3.04269 18.9415 3.04269H18.9729C18.9887 3.04269 19.0123 3.04269 19.0359 3.04269C21.1605 3.0899 24.7725 3.95551 25.0164 9.29077C25.0164 9.31438 25.0164 9.33799 25.0243 9.35373C25.0322 9.40881 25.583 14.7598 23.0806 17.577C22.0891 18.6944 20.7671 19.2452 19.028 19.261C19.0123 19.261 19.0044 19.261 18.9887 19.261C18.9729 19.261 18.9651 19.261 18.9493 19.261C17.2181 19.2452 15.8882 18.6944 14.9046 17.577C12.4101 14.7756 12.9452 9.40094 12.9531 9.35373Z" fill="#727272"/>
<path d="M35.1595 31.0963C35.1595 31.0884 35.1595 31.0805 35.1595 31.0727C35.1595 31.0097 35.1516 30.9468 35.1516 30.8759C35.1044 29.3178 35.0021 25.6744 31.5869 24.5098C31.5633 24.5019 31.5318 24.4941 31.5082 24.4862C27.9593 23.5813 25.0083 21.5353 24.9769 21.5117C24.4968 21.1733 23.8358 21.2913 23.4975 21.7714C23.1591 22.2514 23.2771 22.9124 23.7571 23.2507C23.8909 23.3452 27.0228 25.5249 30.9417 26.5322C32.7752 27.1853 32.9798 29.1447 33.0348 30.9389C33.0348 31.0097 33.0348 31.0727 33.0427 31.1356C33.0506 31.8438 33.0034 32.9377 32.8775 33.5672C31.6027 34.2911 26.6058 36.7935 19.0042 36.7935C11.4341 36.7935 6.40572 34.2833 5.12305 33.5593C4.99715 32.9298 4.94207 31.836 4.9578 31.1278C4.9578 31.0648 4.96567 31.0018 4.96567 30.931C5.02076 29.1369 5.22535 27.1774 7.05886 26.5243C10.9777 25.5171 14.1096 23.3294 14.2434 23.2429C14.7234 22.9045 14.8414 22.2435 14.5031 21.7635C14.1647 21.2835 13.5037 21.1654 13.0237 21.5038C12.9922 21.5274 10.057 23.5734 6.49228 24.4783C6.46081 24.4862 6.4372 24.4941 6.41359 24.5019C2.99839 25.6744 2.89609 29.3179 2.84888 30.8681C2.84888 30.9389 2.84888 31.0018 2.84101 31.0648C2.84101 31.0727 2.84101 31.0805 2.84101 31.0884C2.83314 31.4976 2.82527 33.5987 3.24233 34.6531C3.32103 34.8577 3.46267 35.0308 3.65153 35.1489C3.8876 35.3063 9.5455 38.9103 19.0121 38.9103C28.4786 38.9103 34.1365 35.2984 34.3726 35.1489C34.5536 35.0308 34.7031 34.8577 34.7818 34.6531C35.1752 33.6065 35.1674 31.5055 35.1595 31.0963Z" fill="#727272"/>
</g>
<defs>
<clipPath id="clip0">
<rect width="38" height="38" fill="white" transform="translate(0 0.910156)"/>
</clipPath>
</defs>
</svg>
