<svg width="38" height="38" viewBox="0 0 38 38" fill="none" xmlns="http://www.w3.org/2000/svg">
<g clip-path="url(#clip0)">
<g clip-path="url(#clip1)">
<path d="M26.917 31.1082H23.3545C22.699 31.1082 22.167 30.5762 22.167 29.9207C22.167 29.2652 22.699 28.7332 23.3545 28.7332H26.917C31.7192 28.7332 35.6252 24.8254 35.6252 20.0246C35.6252 15.2242 31.7192 11.3164 26.917 11.3164H23.3545C22.699 11.3164 22.167 10.7844 22.167 10.1289C22.167 9.4734 22.699 8.94141 23.3545 8.94141H26.917C33.0284 8.94141 38.0002 13.9146 38.0002 20.0246C38.0002 26.1349 33.0284 31.1082 26.917 31.1082Z" fill="#727272"/>
<path d="M14.6457 31.1082H11.0832C4.97179 31.1082 0 26.1349 0 20.0246C0 13.9146 4.97179 8.94141 11.0832 8.94141H14.6457C15.3012 8.94141 15.8332 9.4734 15.8332 10.1289C15.8332 10.7844 15.3012 11.3164 14.6457 11.3164H11.0832C6.28105 11.3164 2.375 15.2242 2.375 20.0246C2.375 24.8254 6.28105 28.7332 11.0832 28.7332H14.6457C15.3012 28.7332 15.8332 29.2652 15.8332 29.9207C15.8332 30.5762 15.3012 31.1082 14.6457 31.1082Z" fill="#727272"/>
<path d="M24.146 21.2129H13.8545C13.199 21.2129 12.667 20.6809 12.667 20.0254C12.667 19.3699 13.199 18.8379 13.8545 18.8379H24.146C24.8015 18.8379 25.3335 19.3699 25.3335 20.0254C25.3335 20.6809 24.8015 21.2129 24.146 21.2129Z" fill="#727272"/>
</g>
</g>
<defs>
<clipPath id="clip0">
<rect width="38" height="38" fill="white"/>
</clipPath>
<clipPath id="clip1">
<rect width="38" height="38" fill="white" transform="translate(0 1)"/>
</clipPath>
</defs>
</svg>
